<?xml version="1.0" encoding="UTF-8" standalone="no"?>
<svg
   xmlns:dc="http://purl.org/dc/elements/1.1/"
   xmlns:cc="http://creativecommons.org/ns#"
   xmlns:rdf="http://www.w3.org/1999/02/22-rdf-syntax-ns#"
   xmlns:svg="http://www.w3.org/2000/svg"
   xmlns="http://www.w3.org/2000/svg"
   xmlns:sodipodi="http://sodipodi.sourceforge.net/DTD/sodipodi-0.dtd"
   xmlns:inkscape="http://www.inkscape.org/namespaces/inkscape"
   width="50mm"
   height="50mm"
   viewBox="0 0 50 50"
   version="1.1"
   id="svg8"
   inkscape:version="1.0.1 (3bc2e813f5, 2020-09-07)"
   sodipodi:docname="fitness-app-logo.svg">
  <defs
     id="defs2" />
  <sodipodi:namedview
     id="base"
     pagecolor="#ffffff"
     bordercolor="#666666"
     borderopacity="1.0"
     inkscape:pageopacity="0.0"
     inkscape:pageshadow="2"
     inkscape:zoom="1.7570328"
     inkscape:cx="16.106893"
     inkscape:cy="162.32245"
     inkscape:document-units="mm"
     inkscape:current-layer="layer1"
     inkscape:document-rotation="0"
     showgrid="false"
     inkscape:window-width="1366"
     inkscape:window-height="701"
     inkscape:window-x="0"
     inkscape:window-y="39"
     inkscape:window-maximized="1" />
  <metadata
     id="metadata5">
    <rdf:RDF>
      <cc:Work
         rdf:about="">
        <dc:format>image/svg+xml</dc:format>
        <dc:type
           rdf:resource="http://purl.org/dc/dcmitype/StillImage" />
        <dc:title></dc:title>
      </cc:Work>
    </rdf:RDF>
  </metadata>
  <g
     inkscape:label="Layer 1"
     inkscape:groupmode="layer"
     id="layer1"
     style="display:inline;opacity:0.73784199">
    <path
       id="path10"
       style="fill:#0d1a32;fill-opacity:1;stroke:none;stroke-width:0.0719601"
       d="m 12.158759,7.7863752 c -0.644223,0 -1.162888,0.518524 -1.162888,1.1627467 v 1.4702631 c -0.130205,-0.0618 -0.275439,-0.0974 -0.429653,-0.0974 H 7.6789569 c -0.554335,0 -1.000695,0.44636 -1.000695,1.000696 v 4.30496 c -0.02814,-0.0036 -0.05658,-0.006 -0.08573,-0.006 h -3.565546 c -0.366477,0 -0.661555,0.294937 -0.661555,0.661414 v 19.353768 c 0,0.366479 0.295078,0.661556 0.661555,0.661556 h 3.565542 c 0.02915,0 0.0576,-0.0024 0.08573,-0.006 v 4.304963 c 0,0.554335 0.44636,1.000695 1.000695,1.000695 h 2.8872611 c 0.154214,0 0.299448,-0.03561 0.429653,-0.0974 v 1.470264 c 0,0.644223 0.518665,1.162747 1.162888,1.162747 h 2.562878 c 0.644221,0 1.162747,-0.518524 1.162747,-1.162747 V 29.327063 h 18.143516 v 13.643758 c 0,0.644223 0.518524,1.162747 1.162747,1.162747 h 2.562879 c 0.644222,0 1.162888,-0.518524 1.162888,-1.162747 v -1.470264 c 0.130202,0.0618 0.275437,0.0974 0.429653,0.0974 h 2.887258 c 0.554338,0 1.000698,-0.44636 1.000698,-1.000695 v -4.304963 c 0.02814,0.0036 0.05658,0.006 0.08573,0.006 h 3.565544 c 0.366478,0 0.661555,-0.295077 0.661555,-0.661556 v -19.35373 c 0,-0.366477 -0.295077,-0.661414 -0.661555,-0.661414 h -3.565544 c -0.02915,0 -0.0576,0.0024 -0.08573,0.006 v -4.30496 c 0,-0.554336 -0.44636,-1.000696 -1.000698,-1.000696 h -2.887258 c -0.154216,0 -0.299451,0.0356 -0.429653,0.0974 V 8.9490799 c 0,-0.6442227 -0.518666,-1.1627467 -1.162888,-1.1627467 h -2.562879 c -0.644223,0 -1.162747,0.518524 -1.162747,1.1627467 V 23.837566 H 15.884384 V 8.9491219 c 0,-0.6442227 -0.518526,-1.1627467 -1.162747,-1.1627467 z M 25.922965,32.831602 a 0.02717203,0.02717203 0 0 0 -0.02529,0.02712 0.02717203,0.02717203 0 0 0 0.02712,0.02712 0.02717203,0.02717203 0 0 0 0.02712,-0.02712 0.02717203,0.02717203 0 0 0 -0.02712,-0.02712 0.02717203,0.02717203 0 0 0 -0.0019,0 z" />
  </g>
  <g
     inkscape:groupmode="layer"
     id="layer2"
     inkscape:label="Layer 2"
     style="display:inline">
    <path
       id="path896"
       style="fill:#2c5aa0;fill-opacity:1;stroke:none;stroke-width:0.0719601"
       d="m 12.158759,7.1840365 c -0.644223,0 -1.162888,0.518524 -1.162888,1.162746 v 1.470264 c -0.130205,-0.0618 -0.275439,-0.0974 -0.429653,-0.0974 H 7.6789569 c -0.5543349,0 -1.0006949,0.4463605 -1.0006949,1.0006965 v 4.30496 c -0.02814,-0.0036 -0.05658,-0.006 -0.08573,-0.006 H 3.0269859 c -0.366477,0 -0.661555,0.294937 -0.661555,0.661414 v 19.353768 c 0,0.36648 0.295078,0.661557 0.661555,0.661557 H 6.592528 c 0.02915,0 0.0576,-0.0024 0.08573,-0.006 v 4.304964 c 0,0.554333 0.4463601,1.000693 1.0006949,1.000693 h 2.8872611 c 0.154214,0 0.299448,-0.03561 0.429653,-0.0974 v 1.470263 c 0,0.644224 0.518665,1.162746 1.162888,1.162746 h 2.562878 c 0.644221,0 1.162747,-0.518522 1.162747,-1.162746 V 28.724725 h 18.143516 v 13.643759 c 0,0.644221 0.518525,1.162746 1.162749,1.162746 h 2.562878 c 0.644221,0 1.162886,-0.518525 1.162886,-1.162746 v -1.470266 c 0.130204,0.0618 0.27544,0.0974 0.429655,0.0974 h 2.887257 c 0.554339,0 1.000699,-0.44636 1.000699,-1.000696 v -4.304961 c 0.02814,0.0036 0.05658,0.006 0.08573,0.006 h 3.565543 c 0.366477,0 0.661554,-0.29508 0.661554,-0.661557 V 15.680675 c 0,-0.366477 -0.295077,-0.661414 -0.661554,-0.661414 h -3.565542 c -0.02915,0 -0.0576,0.0024 -0.08573,0.006 v -4.30496 c 0,-0.554336 -0.44636,-1.0006965 -1.000699,-1.0006965 h -2.887257 c -0.154215,0 -0.299451,0.0356 -0.429655,0.0974 v -1.470264 c -10e-7,-0.644222 -0.518666,-1.162746 -1.162887,-1.162746 h -2.562878 c -0.644224,0 -1.162749,0.518524 -1.162749,1.162746 V 23.235228 H 15.884384 V 8.3467825 c 0,-0.644222 -0.518526,-1.162746 -1.162747,-1.162746 z M 25.922965,32.229264 a 0.02717203,0.02717203 0 0 0 -0.02529,0.02712 0.02717203,0.02717203 0 0 0 0.02712,0.02712 0.02717203,0.02717203 0 0 0 0.02712,-0.02712 0.02717203,0.02717203 0 0 0 -0.02712,-0.02712 0.02717203,0.02717203 0 0 0 -0.0019,0 z" />
  </g>
</svg>
